<svg class="diagram-root" style="background: white" xmlns="http://www.w3.org/2000/svg" xmlns:xlink="http://www.w3.org/1999/xlink"><style>.diagram-root { font-family: "Helvetica Neue", sans-serif; font-size: 12px; } .t { overflow: visible; } .t-bg { y: 40; fill: white; stroke: #323c46; stroke-width: 2; } .th { fill: white; stroke: #323c46; stroke-width: 2; } .tht { fill: #323c46; font-size: 14px; font-weight: bold; } .tf { fill: #323c46; overflow: visible; } .tf.pk { fill: #323c46; font-weight: bold; } .tf.fk { font-weight: bold; } .ty { fill: #323c46; font-weight: normal; text-anchor: end; } .r { fill: transparent; stroke: #4e4e4e; stroke-width: 1; } .l { stroke: 1; } .i { fill: #a0a0a0; stroke: #a0a0a0; } .i.ix { fill: #a0a0a0; stroke: #000; } .fa { fill: transparent; overflow: visible; } .fa .bg.hover { fill: #f3f3f3; } .c { cy: 12; r: 4; stroke: #424242; fill: #424242; } .hr { fill: transparent; stroke: #323c46; stroke-opacity: 0.035; stroke-width: 13; } .dc { stroke: #fa5a3c; fill: #fa5a3c; } .x { stroke: white; stroke-width: 1; } .hl .th { fill: #323c46; } .hl .tht { fill: white; } .fhl .bg { fill: #efefef; } .fhls .bg {  } .r.hl { stroke: black; } .dim { opacity: 0.25; }</style><g class="drawing-wrapper" transform="translate(-19.42714285714274, 2.857142857142545) scale(1,1)"><g class="rs"><path d="M 1240.62 473.4457142857142 m -1, 0 a 1,1 0 1,0 2,0 a 1,1 0 1,0 -2,0 M 1240.62 473.4457142857142 m -0.5, 0 a 0.5,0.5 0 1,0 1,0 a 0.5,0.5 0 1,0 -1,0  M1240.62 473.4457142857142 L1240.62 473.4457142857142 1252.62 473.4457142857142 M 1240.62 479.4457142857142 m -1, 0 a 1,1 0 1,0 2,0 a 1,1 0 1,0 -2,0 M 1240.62 479.4457142857142 m -0.5, 0 a 0.5,0.5 0 1,0 1,0 a 0.5,0.5 0 1,0 -1,0  M1240.62 479.4457142857142 L1240.62 479.4457142857142 1247.62 473.4457142857142 1240.62 467.4457142857142 M 1240.62 467.4457142857142 m -1, 0 a 1,1 0 1,0 2,0 a 1,1 0 1,0 -2,0 M 1240.62 467.4457142857142 m -0.5, 0 a 0.5,0.5 0 1,0 1,0 a 0.5,0.5 0 1,0 -1,0  M1252.62 473.4457142857142 Q 1310.68 473.4457142857142, 1368.74 460.73 T 1484.8614285714305 448.02000000000027 M 1496.8614285714305 448.02000000000027 m -1, 0 a 1,1 0 1,0 2,0 a 1,1 0 1,0 -2,0 M 1496.8614285714305 448.02000000000027 m -0.5, 0 a 0.5,0.5 0 1,0 1,0 a 0.5,0.5 0 1,0 -1,0  M1496.8614285714305 448.02000000000027 L1496.8614285714305 448.02000000000027 1484.8614285714305 448.02000000000027 M1490.8614285714305 454.02000000000027 L1490.8614285714305 454.02000000000027 1490.8614285714305 442.02000000000027" id="h2776694773" class="r"></path><path d="M 346.34634920634915 748.7460317460318 m -1, 0 a 1,1 0 1,0 2,0 a 1,1 0 1,0 -2,0 M 346.34634920634915 748.7460317460318 m -0.5, 0 a 0.5,0.5 0 1,0 1,0 a 0.5,0.5 0 1,0 -1,0  M346.34634920634915 748.7460317460318 L346.34634920634915 748.7460317460318 334.34634920634915 748.7460317460318 M 346.34634920634915 754.7460317460318 m -1, 0 a 1,1 0 1,0 2,0 a 1,1 0 1,0 -2,0 M 346.34634920634915 754.7460317460318 m -0.5, 0 a 0.5,0.5 0 1,0 1,0 a 0.5,0.5 0 1,0 -1,0  M346.34634920634915 754.7460317460318 L346.34634920634915 754.7460317460318 339.34634920634915 748.7460317460318 346.34634920634915 742.7460317460318 M 346.34634920634915 742.7460317460318 m -1, 0 a 1,1 0 1,0 2,0 a 1,1 0 1,0 -2,0 M 346.34634920634915 742.7460317460318 m -0.5, 0 a 0.5,0.5 0 1,0 1,0 a 0.5,0.5 0 1,0 -1,0  M334.34634920634915 748.7460317460318 Q 319.12 748.7460317460318, 303.89 644.38 T 273.44 540.0187301587302 M 261.44 540.0187301587302 m -1, 0 a 1,1 0 1,0 2,0 a 1,1 0 1,0 -2,0 M 261.44 540.0187301587302 m -0.5, 0 a 0.5,0.5 0 1,0 1,0 a 0.5,0.5 0 1,0 -1,0  M261.44 540.0187301587302 L261.44 540.0187301587302 273.44 540.0187301587302 M267.44 546.0187301587302 L267.44 546.0187301587302 267.44 534.0187301587302" id="h2260202938" class="r"></path><path d="M 559.76 773.7460317460318 m -1, 0 a 1,1 0 1,0 2,0 a 1,1 0 1,0 -2,0 M 559.76 773.7460317460318 m -0.5, 0 a 0.5,0.5 0 1,0 1,0 a 0.5,0.5 0 1,0 -1,0  M559.76 773.7460317460318 L559.76 773.7460317460318 571.76 773.7460317460318 M 559.76 779.7460317460318 m -1, 0 a 1,1 0 1,0 2,0 a 1,1 0 1,0 -2,0 M 559.76 779.7460317460318 m -0.5, 0 a 0.5,0.5 0 1,0 1,0 a 0.5,0.5 0 1,0 -1,0  M559.76 779.7460317460318 L559.76 779.7460317460318 566.76 773.7460317460318 559.76 767.7460317460318 M 559.76 767.7460317460318 m -1, 0 a 1,1 0 1,0 2,0 a 1,1 0 1,0 -2,0 M 559.76 767.7460317460318 m -0.5, 0 a 0.5,0.5 0 1,0 1,0 a 0.5,0.5 0 1,0 -1,0  M571.76 773.7460317460318 Q 685.46 773.7460317460318, 799.15 448.6 T 1026.5400000000013 123.44571428571417 M 1038.5400000000013 123.44571428571417 m -1, 0 a 1,1 0 1,0 2,0 a 1,1 0 1,0 -2,0 M 1038.5400000000013 123.44571428571417 m -0.5, 0 a 0.5,0.5 0 1,0 1,0 a 0.5,0.5 0 1,0 -1,0  M1038.5400000000013 123.44571428571417 L1038.5400000000013 123.44571428571417 1026.5400000000013 123.44571428571417 M1032.5400000000013 129.4457142857142 L1032.5400000000013 129.4457142857142 1032.5400000000013 117.44571428571417" id="h2582463640" class="r"></path><path d="M 254.84 402.0042857142854 m -1, 0 a 1,1 0 1,0 2,0 a 1,1 0 1,0 -2,0 M 254.84 402.0042857142854 m -0.5, 0 a 0.5,0.5 0 1,0 1,0 a 0.5,0.5 0 1,0 -1,0  M254.84 402.0042857142854 L254.84 402.0042857142854 266.84000000000003 402.0042857142854 M 254.84 408.0042857142854 m -1, 0 a 1,1 0 1,0 2,0 a 1,1 0 1,0 -2,0 M 254.84 408.0042857142854 m -0.5, 0 a 0.5,0.5 0 1,0 1,0 a 0.5,0.5 0 1,0 -1,0  M254.84 408.0042857142854 L254.84 408.0042857142854 261.84000000000003 402.0042857142854 254.84 396.0042857142854 M 254.84 396.0042857142854 m -1, 0 a 1,1 0 1,0 2,0 a 1,1 0 1,0 -2,0 M 254.84 396.0042857142854 m -0.5, 0 a 0.5,0.5 0 1,0 1,0 a 0.5,0.5 0 1,0 -1,0  M266.84000000000003 402.0042857142854 C 323.4573879648577 402.0042857142854, 319.4973879648577 540.0187301587302, 273.44 540.0187301587302 M 261.44 540.0187301587302 m -1, 0 a 1,1 0 1,0 2,0 a 1,1 0 1,0 -2,0 M 261.44 540.0187301587302 m -0.5, 0 a 0.5,0.5 0 1,0 1,0 a 0.5,0.5 0 1,0 -1,0  M261.44 540.0187301587302 L261.44 540.0187301587302 273.44 540.0187301587302 M267.44 546.0187301587302 L267.44 546.0187301587302 267.44 534.0187301587302" id="h263892797" class="r"></path><path d="M 254.84 427.0042857142854 m -1, 0 a 1,1 0 1,0 2,0 a 1,1 0 1,0 -2,0 M 254.84 427.0042857142854 m -0.5, 0 a 0.5,0.5 0 1,0 1,0 a 0.5,0.5 0 1,0 -1,0  M254.84 427.0042857142854 L254.84 427.0042857142854 266.84000000000003 427.0042857142854 M 254.84 433.0042857142854 m -1, 0 a 1,1 0 1,0 2,0 a 1,1 0 1,0 -2,0 M 254.84 433.0042857142854 m -0.5, 0 a 0.5,0.5 0 1,0 1,0 a 0.5,0.5 0 1,0 -1,0  M254.84 433.0042857142854 L254.84 433.0042857142854 261.84000000000003 427.0042857142854 254.84 421.0042857142854 M 254.84 421.0042857142854 m -1, 0 a 1,1 0 1,0 2,0 a 1,1 0 1,0 -2,0 M 254.84 421.0042857142854 m -0.5, 0 a 0.5,0.5 0 1,0 1,0 a 0.5,0.5 0 1,0 -1,0  M266.84000000000003 427.0042857142854 Q 456.77 427.0042857142854, 646.69 275.22 T 1026.5400000000013 123.44571428571417 M 1038.5400000000013 123.44571428571417 m -1, 0 a 1,1 0 1,0 2,0 a 1,1 0 1,0 -2,0 M 1038.5400000000013 123.44571428571417 m -0.5, 0 a 0.5,0.5 0 1,0 1,0 a 0.5,0.5 0 1,0 -1,0  M1038.5400000000013 123.44571428571417 L1038.5400000000013 123.44571428571417 1026.5400000000013 123.44571428571417 M1032.5400000000013 129.4457142857142 L1032.5400000000013 129.4457142857142 1032.5400000000013 117.44571428571417" id="h2529334941" class="r"></path><path d="M 1241.6699999999996 747.0000000000001 m -1, 0 a 1,1 0 1,0 2,0 a 1,1 0 1,0 -2,0 M 1241.6699999999996 747.0000000000001 m -0.5, 0 a 0.5,0.5 0 1,0 1,0 a 0.5,0.5 0 1,0 -1,0  M1241.6699999999996 747.0000000000001 L1241.6699999999996 747.0000000000001 1229.6699999999996 747.0000000000001 M1235.6699999999996 753.0000000000001 L1235.6699999999996 753.0000000000001 1235.6699999999996 741.0000000000001 M1229.6699999999996 747.0000000000001 Q 1167.37 747.0000000000001, 1105.08 739.98 T 980.49 732.955714285714 M 968.49 732.955714285714 m -1, 0 a 1,1 0 1,0 2,0 a 1,1 0 1,0 -2,0 M 968.49 732.955714285714 m -0.5, 0 a 0.5,0.5 0 1,0 1,0 a 0.5,0.5 0 1,0 -1,0  M968.49 732.955714285714 L968.49 732.955714285714 980.49 732.955714285714 M974.49 738.955714285714 L974.49 738.955714285714 974.49 726.955714285714" id="h3972633573" class="r"></path><path d="M 1409.06 772.0000000000001 m -1, 0 a 1,1 0 1,0 2,0 a 1,1 0 1,0 -2,0 M 1409.06 772.0000000000001 m -0.5, 0 a 0.5,0.5 0 1,0 1,0 a 0.5,0.5 0 1,0 -1,0  M1409.06 772.0000000000001 L1409.06 772.0000000000001 1421.06 772.0000000000001 M1415.06 778.0000000000001 L1415.06 778.0000000000001 1415.06 766.0000000000001 M1421.06 772.0000000000001 Q 1437.01 772.0000000000001, 1452.96 610.01 T 1484.8614285714305 448.02000000000027 M 1496.8614285714305 448.02000000000027 m -1, 0 a 1,1 0 1,0 2,0 a 1,1 0 1,0 -2,0 M 1496.8614285714305 448.02000000000027 m -0.5, 0 a 0.5,0.5 0 1,0 1,0 a 0.5,0.5 0 1,0 -1,0  M1496.8614285714305 448.02000000000027 L1496.8614285714305 448.02000000000027 1484.8614285714305 448.02000000000027 M1490.8614285714305 454.02000000000027 L1490.8614285714305 454.02000000000027 1490.8614285714305 442.02000000000027" id="h410450088" class="r"></path><path d="M 966.89 581.9163492063491 m -1, 0 a 1,1 0 1,0 2,0 a 1,1 0 1,0 -2,0 M 966.89 581.9163492063491 m -0.5, 0 a 0.5,0.5 0 1,0 1,0 a 0.5,0.5 0 1,0 -1,0  M966.89 581.9163492063491 L966.89 581.9163492063491 978.89 581.9163492063491 M 966.89 587.9163492063491 m -1, 0 a 1,1 0 1,0 2,0 a 1,1 0 1,0 -2,0 M 966.89 587.9163492063491 m -0.5, 0 a 0.5,0.5 0 1,0 1,0 a 0.5,0.5 0 1,0 -1,0  M966.89 587.9163492063491 L966.89 587.9163492063491 973.89 581.9163492063491 966.89 575.9163492063491 M 966.89 575.9163492063491 m -1, 0 a 1,1 0 1,0 2,0 a 1,1 0 1,0 -2,0 M 966.89 575.9163492063491 m -0.5, 0 a 0.5,0.5 0 1,0 1,0 a 0.5,0.5 0 1,0 -1,0  M978.89 581.9163492063491 C 1031.4499999999998 581.9163492063491, 1030.49 732.955714285714, 980.49 732.955714285714 M 968.49 732.955714285714 m -1, 0 a 1,1 0 1,0 2,0 a 1,1 0 1,0 -2,0 M 968.49 732.955714285714 m -0.5, 0 a 0.5,0.5 0 1,0 1,0 a 0.5,0.5 0 1,0 -1,0  M968.49 732.955714285714 L968.49 732.955714285714 980.49 732.955714285714 M974.49 738.955714285714 L974.49 738.955714285714 974.49 726.955714285714" id="h3748689207" class="r"></path><path d="M 810.1573015873013 606.9163492063491 m -1, 0 a 1,1 0 1,0 2,0 a 1,1 0 1,0 -2,0 M 810.1573015873013 606.9163492063491 m -0.5, 0 a 0.5,0.5 0 1,0 1,0 a 0.5,0.5 0 1,0 -1,0  M810.1573015873013 606.9163492063491 L810.1573015873013 606.9163492063491 798.1573015873013 606.9163492063491 M 810.1573015873013 612.9163492063491 m -1, 0 a 1,1 0 1,0 2,0 a 1,1 0 1,0 -2,0 M 810.1573015873013 612.9163492063491 m -0.5, 0 a 0.5,0.5 0 1,0 1,0 a 0.5,0.5 0 1,0 -1,0  M810.1573015873013 612.9163492063491 L810.1573015873013 612.9163492063491 803.1573015873013 606.9163492063491 810.1573015873013 600.9163492063491 M 810.1573015873013 600.9163492063491 m -1, 0 a 1,1 0 1,0 2,0 a 1,1 0 1,0 -2,0 M 810.1573015873013 600.9163492063491 m -0.5, 0 a 0.5,0.5 0 1,0 1,0 a 0.5,0.5 0 1,0 -1,0  M798.1573015873013 606.9163492063491 Q 741.56 606.9163492063491, 684.96 602.83 T 571.76 598.7460317460318 M 559.76 598.7460317460318 m -1, 0 a 1,1 0 1,0 2,0 a 1,1 0 1,0 -2,0 M 559.76 598.7460317460318 m -0.5, 0 a 0.5,0.5 0 1,0 1,0 a 0.5,0.5 0 1,0 -1,0  M559.76 598.7460317460318 L559.76 598.7460317460318 571.76 598.7460317460318 M565.76 604.7460317460318 L565.76 604.7460317460318 565.76 592.7460317460318" id="h485973419" class="r"></path><path d="M 266.56 134.14285714285745 m -1, 0 a 1,1 0 1,0 2,0 a 1,1 0 1,0 -2,0 M 266.56 134.14285714285745 m -0.5, 0 a 0.5,0.5 0 1,0 1,0 a 0.5,0.5 0 1,0 -1,0  M266.56 134.14285714285745 L266.56 134.14285714285745 278.56 134.14285714285745 M 266.56 140.14285714285745 m -1, 0 a 1,1 0 1,0 2,0 a 1,1 0 1,0 -2,0 M 266.56 140.14285714285745 m -0.5, 0 a 0.5,0.5 0 1,0 1,0 a 0.5,0.5 0 1,0 -1,0  M266.56 140.14285714285745 L266.56 140.14285714285745 273.56 134.14285714285745 266.56 128.14285714285745 M 266.56 128.14285714285745 m -1, 0 a 1,1 0 1,0 2,0 a 1,1 0 1,0 -2,0 M 266.56 128.14285714285745 m -0.5, 0 a 0.5,0.5 0 1,0 1,0 a 0.5,0.5 0 1,0 -1,0  M278.56 134.14285714285745 Q 308.96 134.14285714285745, 339.35 111.29 T 400.14285714285637 88.43142857142854 M 412.14285714285637 88.43142857142854 m -1, 0 a 1,1 0 1,0 2,0 a 1,1 0 1,0 -2,0 M 412.14285714285637 88.43142857142854 m -0.5, 0 a 0.5,0.5 0 1,0 1,0 a 0.5,0.5 0 1,0 -1,0  M412.14285714285637 88.43142857142854 L412.14285714285637 88.43142857142854 400.14285714285637 88.43142857142854 M406.14285714285637 94.43142857142854 L406.14285714285637 94.43142857142854 406.14285714285637 82.43142857142854" id="h3795644574" class="r"></path><path d="M 266.56 159.14285714285745 m -1, 0 a 1,1 0 1,0 2,0 a 1,1 0 1,0 -2,0 M 266.56 159.14285714285745 m -0.5, 0 a 0.5,0.5 0 1,0 1,0 a 0.5,0.5 0 1,0 -1,0  M266.56 159.14285714285745 L266.56 159.14285714285745 278.56 159.14285714285745 M 266.56 165.14285714285745 m -1, 0 a 1,1 0 1,0 2,0 a 1,1 0 1,0 -2,0 M 266.56 165.14285714285745 m -0.5, 0 a 0.5,0.5 0 1,0 1,0 a 0.5,0.5 0 1,0 -1,0  M266.56 165.14285714285745 L266.56 165.14285714285745 273.56 159.14285714285745 266.56 153.14285714285745 M 266.56 153.14285714285745 m -1, 0 a 1,1 0 1,0 2,0 a 1,1 0 1,0 -2,0 M 266.56 153.14285714285745 m -0.5, 0 a 0.5,0.5 0 1,0 1,0 a 0.5,0.5 0 1,0 -1,0  M278.56 159.14285714285745 C 318.04090219741664 159.14285714285745, 325.0729021974166 277.0042857142854, 266.84000000000003 277.0042857142854 M 254.84 277.0042857142854 m -1, 0 a 1,1 0 1,0 2,0 a 1,1 0 1,0 -2,0 M 254.84 277.0042857142854 m -0.5, 0 a 0.5,0.5 0 1,0 1,0 a 0.5,0.5 0 1,0 -1,0  M254.84 277.0042857142854 L254.84 277.0042857142854 266.84000000000003 277.0042857142854 M260.84000000000003 283.0042857142854 L260.84000000000003 283.0042857142854 260.84000000000003 271.0042857142854" id="h942465420" class="r"></path></g><g class="hrs"></g><g class="ts"><svg width="202.08" height="350" x="59.36190476190452" y="483.0187301587302" id="h163436055" class="t"><rect height="40" width="202.08" class="th"></rect><text x="13" y="25" class="tht">Klienci</text><rect height="310" width="202.08" class="t-bg"></rect><text x="13" y="61" class="tf pk">IDKlienta<tspan x="189.08" class="ty">INT</tspan></text><path d="M7,14A2,2 0 0,1 5,12A2,2 0 0,1 7,10A2,2 0 0,1 9,12A2,2 0 0,1 7,14M12.65,10C11.83,7.67 9.61,6 7, 6A6, 6 0 0, 0 1, 12A6, 6 0 0, 0 7, 18C9.61, 18 11.83, 16.33 12.65, 14H17V18H21V14H23V10H12.65Z" class="i pk" transform="translate(149.749921875, 48) scale(0.65)"></path><text x="13" y="86" class="tf">NIP<tspan x="189.08" class="ty">nvarchar(10)?</tspan></text><text x="13" y="111" class="tf">Imie<tspan x="189.08" class="ty">nvarchar(50)</tspan></text><text x="13" y="136" class="tf">Nazwisko<tspan x="189.08" class="ty">nvarchar(50)</tspan></text><text x="13" y="161" class="tf">Plec<tspan x="189.08" class="ty">nvarchar(1)</tspan></text><text x="13" y="186" class="tf">Numer_telefonu<tspan x="189.08" class="ty">nvarchar(22)</tspan></text><text x="13" y="211" class="tf">Adres_email<tspan x="189.08" class="ty">nvarchar(150)</tspan></text><text x="13" y="236" class="tf">Data_urodzenia<tspan x="189.08" class="ty">date</tspan></text><text x="13" y="261" class="tf">Data_rejestracji<tspan x="189.08" class="ty">date</tspan></text><text x="13" y="286" class="tf">Miasto<tspan x="189.08" class="ty">nvarchar(50)</tspan></text><text x="13" y="311" class="tf">Ulica<tspan x="189.08" class="ty">nvarchar(50)</tspan></text><text x="13" y="336" class="tf">Numer_budynku<tspan x="189.08" class="ty">nvarchar(10)</tspan></text></svg><svg width="202.08" height="425" x="1038.5400000000013" y="66.44571428571417" id="h3999288498" class="t"><rect height="40" width="202.08" class="th"></rect><text x="13" y="25" class="tht">Pracownicy</text><rect height="385" width="202.08" class="t-bg"></rect><text x="13" y="61" class="tf pk">PESEL<tspan x="189.08" class="ty">nvarchar(11)</tspan></text><path d="M7,14A2,2 0 0,1 5,12A2,2 0 0,1 7,10A2,2 0 0,1 9,12A2,2 0 0,1 7,14M12.65,10C11.83,7.67 9.61,6 7, 6A6, 6 0 0, 0 1, 12A6, 6 0 0, 0 7, 18C9.61, 18 11.83, 16.33 12.65, 14H17V18H21V14H23V10H12.65Z" class="i pk" transform="translate(101.94328125000001, 48) scale(0.65)"></path><text x="13" y="86" class="tf">Imie<tspan x="189.08" class="ty">nvarchar(50)</tspan></text><text x="13" y="111" class="tf">Nazwisko<tspan x="189.08" class="ty">nvarchar(50)</tspan></text><text x="13" y="136" class="tf">Plec<tspan x="189.08" class="ty">nvarchar(1)</tspan></text><text x="13" y="161" class="tf">Numer_telefonu<tspan x="189.08" class="ty">nvarchar(22)</tspan></text><text x="13" y="186" class="tf">Adres_email<tspan x="189.08" class="ty">nvarchar(150)</tspan></text><text x="13" y="211" class="tf">Data_urodzenia<tspan x="189.08" class="ty">date</tspan></text><text x="13" y="236" class="tf">Data_zatrudnienia<tspan x="189.08" class="ty">date</tspan></text><text x="13" y="261" class="tf">Pensja<tspan x="189.08" class="ty">smallmoney</tspan></text><text x="13" y="286" class="tf">Stanowisko<tspan x="189.08" class="ty">nvarchar(50)</tspan></text><text x="13" y="311" class="tf">Dzial<tspan x="189.08" class="ty">nvarchar(50)</tspan></text><text x="13" y="336" class="tf">Miasto<tspan x="189.08" class="ty">nvarchar(50)</tspan></text><text x="13" y="361" class="tf">Ulica<tspan x="189.08" class="ty">nvarchar(50)</tspan></text><text x="13" y="386" class="tf">Numer_budynku<tspan x="189.08" class="ty">nvarchar(10)</tspan></text><text x="13" y="411" class="tf fk">IDPunktu<tspan x="189.08" class="ty">INT</tspan></text></svg><svg width="197.99" height="150" x="68.57142857142836" y="27.142857142857455" id="h1531379359" class="t"><rect height="40" width="197.99" class="th"></rect><text x="13" y="25" class="tht">Pozycje_zamowienia_uslug</text><rect height="110" width="197.99" class="t-bg"></rect><text x="13" y="61" class="tf pk">IDPozycji<tspan x="184.99" class="ty">INT</tspan></text><path d="M7,14A2,2 0 0,1 5,12A2,2 0 0,1 7,10A2,2 0 0,1 9,12A2,2 0 0,1 7,14M12.65,10C11.83,7.67 9.61,6 7, 6A6, 6 0 0, 0 1, 12A6, 6 0 0, 0 7, 18C9.61, 18 11.83, 16.33 12.65, 14H17V18H21V14H23V10H12.65Z" class="i pk" transform="translate(145.659921875, 48) scale(0.65)"></path><text x="13" y="86" class="tf">Ilosc<tspan x="184.99" class="ty">tinyint</tspan></text><text x="13" y="111" class="tf fk">IDUslugi<tspan x="184.99" class="ty">INT</tspan></text><text x="13" y="136" class="tf fk">IDZamowienia<tspan x="184.99" class="ty">INT</tspan></text></svg><svg width="158.72" height="200" x="412.14285714285637" y="31.431428571428537" id="h1280761632" class="t"><rect height="40" width="158.72" class="th"></rect><text x="13" y="25" class="tht">Uslugi</text><rect height="160" width="158.72" class="t-bg"></rect><text x="13" y="61" class="tf pk">IDUslugi<tspan x="145.72" class="ty">INT</tspan></text><path d="M7,14A2,2 0 0,1 5,12A2,2 0 0,1 7,10A2,2 0 0,1 9,12A2,2 0 0,1 7,14M12.65,10C11.83,7.67 9.61,6 7, 6A6, 6 0 0, 0 1, 12A6, 6 0 0, 0 7, 18C9.61, 18 11.83, 16.33 12.65, 14H17V18H21V14H23V10H12.65Z" class="i pk" transform="translate(106.389921875, 48) scale(0.65)"></path><text x="13" y="86" class="tf">Nazwa<tspan x="145.72" class="ty">nvarchar(50)</tspan></text><text x="13" y="111" class="tf">Opis<tspan x="145.72" class="ty">nvarchar(255)?</tspan></text><text x="13" y="136" class="tf">Cena<tspan x="145.72" class="ty">smallmoney</tspan></text><text x="13" y="161" class="tf">Status<tspan x="145.72" class="ty">nvarchar(50)</tspan></text><text x="13" y="186" class="tf">Rabat<tspan x="145.72" class="ty">float</tspan></text></svg><svg width="213.41" height="250" x="346.34634920634915" y="541.7460317460318" id="h2036604576" class="t"><rect height="40" width="213.41" class="th"></rect><text x="13" y="25" class="tht">Zamowienia</text><rect height="210" width="213.41" class="t-bg"></rect><text x="13" y="61" class="tf pk">IDZamowienia<tspan x="200.41" class="ty">INT</tspan></text><path d="M7,14A2,2 0 0,1 5,12A2,2 0 0,1 7,10A2,2 0 0,1 9,12A2,2 0 0,1 7,14M12.65,10C11.83,7.67 9.61,6 7, 6A6, 6 0 0, 0 1, 12A6, 6 0 0, 0 7, 18C9.61, 18 11.83, 16.33 12.65, 14H17V18H21V14H23V10H12.65Z" class="i pk" transform="translate(161.079921875, 48) scale(0.65)"></path><text x="13" y="86" class="tf">Kwota_zamowienia<tspan x="200.41" class="ty">smallmoney</tspan></text><text x="13" y="111" class="tf">Data_zlozenia<tspan x="200.41" class="ty">datetime</tspan></text><text x="13" y="136" class="tf">Data_realizacji<tspan x="200.41" class="ty">datetime?</tspan></text><text x="13" y="161" class="tf">Data_wyslania<tspan x="200.41" class="ty">datetime?</tspan></text><text x="13" y="186" class="tf">Uwagi<tspan x="200.41" class="ty">nvarchar(255)?</tspan></text><text x="13" y="211" class="tf fk">IDKlienta<tspan x="200.41" class="ty">INT</tspan></text><text x="13" y="236" class="tf fk">IDPracownika<tspan x="200.41" class="ty">nvarchar(11)</tspan></text></svg><svg width="156.73" height="150" x="810.1573015873013" y="474.9163492063491" id="h671124069" class="t"><rect height="40" width="156.73" class="th"></rect><text x="13" y="25" class="tht">Pozycje_zamowienia</text><rect height="110" width="156.73" class="t-bg"></rect><text x="13" y="61" class="tf pk">IDPozycji<tspan x="143.73" class="ty">INT</tspan></text><path d="M7,14A2,2 0 0,1 5,12A2,2 0 0,1 7,10A2,2 0 0,1 9,12A2,2 0 0,1 7,14M12.65,10C11.83,7.67 9.61,6 7, 6A6, 6 0 0, 0 1, 12A6, 6 0 0, 0 7, 18C9.61, 18 11.83, 16.33 12.65, 14H17V18H21V14H23V10H12.65Z" class="i pk" transform="translate(104.39992187499999, 48) scale(0.65)"></path><text x="13" y="86" class="tf">Ilosc<tspan x="143.73" class="ty">tinyint</tspan></text><text x="13" y="111" class="tf fk">IDProduktu<tspan x="143.73" class="ty">INT</tspan></text><text x="13" y="136" class="tf fk">IDZamowienia<tspan x="143.73" class="ty">INT</tspan></text></svg><svg width="168.73" height="250" x="799.7585714285713" y="675.955714285714" id="h2759836043" class="t"><rect height="40" width="168.73" class="th"></rect><text x="13" y="25" class="tht">Produkty</text><rect height="210" width="168.73" class="t-bg"></rect><text x="13" y="61" class="tf pk">IDProduktu<tspan x="155.73" class="ty">INT</tspan></text><path d="M7,14A2,2 0 0,1 5,12A2,2 0 0,1 7,10A2,2 0 0,1 9,12A2,2 0 0,1 7,14M12.65,10C11.83,7.67 9.61,6 7, 6A6, 6 0 0, 0 1, 12A6, 6 0 0, 0 7, 18C9.61, 18 11.83, 16.33 12.65, 14H17V18H21V14H23V10H12.65Z" class="i pk" transform="translate(116.39992187499999, 48) scale(0.65)"></path><text x="13" y="86" class="tf">Nazwa<tspan x="155.73" class="ty">nvarchar(50)</tspan></text><text x="13" y="111" class="tf">Kategoria<tspan x="155.73" class="ty">nvarchar(50)</tspan></text><text x="13" y="136" class="tf">Opis<tspan x="155.73" class="ty">nvarchar(255)?</tspan></text><text x="13" y="161" class="tf">Producent<tspan x="155.73" class="ty">nvarchar(50)</tspan></text><text x="13" y="186" class="tf">Cena<tspan x="155.73" class="ty">smallmoney</tspan></text><text x="13" y="211" class="tf">Status<tspan x="155.73" class="ty">nvarchar(50)</tspan></text><text x="13" y="236" class="tf">Rabat<tspan x="155.73" class="ty">float</tspan></text></svg><svg width="167.39" height="150" x="1241.6699999999996" y="690.0000000000001" id="h3262972930" class="t"><rect height="40" width="167.39" class="th"></rect><text x="13" y="25" class="tht">Stan_magazynu</text><rect height="110" width="167.39" class="t-bg"></rect><text x="13" y="61" class="tf pk">IDProduktu<tspan x="154.39" class="ty">int</tspan></text><path d="M7,14A2,2 0 0,1 5,12A2,2 0 0,1 7,10A2,2 0 0,1 9,12A2,2 0 0,1 7,14M12.65,10C11.83,7.67 9.61,6 7, 6A6, 6 0 0, 0 1, 12A6, 6 0 0, 0 7, 18C9.61, 18 11.83, 16.33 12.65, 14H17V18H21V14H23V10H12.65Z" class="i pk" transform="translate(121.71617187499999, 48) scale(0.65)"></path><text x="13" y="86" class="tf pk">IDPunktu<tspan x="154.39" class="ty">int</tspan></text><path d="M7,14A2,2 0 0,1 5,12A2,2 0 0,1 7,10A2,2 0 0,1 9,12A2,2 0 0,1 7,14M12.65,10C11.83,7.67 9.61,6 7, 6A6, 6 0 0, 0 1, 12A6, 6 0 0, 0 7, 18C9.61, 18 11.83, 16.33 12.65, 14H17V18H21V14H23V10H12.65Z" class="i pk" transform="translate(121.71617187499999, 73) scale(0.65)"></path><text x="13" y="111" class="tf">Ilosc<tspan x="154.39" class="ty">tinyint</tspan></text><text x="13" y="136" class="tf">Uwagi<tspan x="154.39" class="ty">nvarchar(255)?</tspan></text></svg><svg width="202.08" height="200" x="1496.8614285714305" y="391.02000000000027" id="h2034134681" class="t"><rect height="40" width="202.08" class="th"></rect><text x="13" y="25" class="tht">Punkty</text><rect height="160" width="202.08" class="t-bg"></rect><text x="13" y="61" class="tf pk">IDPunktu<tspan x="189.08" class="ty">INT</tspan></text><path d="M7,14A2,2 0 0,1 5,12A2,2 0 0,1 7,10A2,2 0 0,1 9,12A2,2 0 0,1 7,14M12.65,10C11.83,7.67 9.61,6 7, 6A6, 6 0 0, 0 1, 12A6, 6 0 0, 0 7, 18C9.61, 18 11.83, 16.33 12.65, 14H17V18H21V14H23V10H12.65Z" class="i pk" transform="translate(149.749921875, 48) scale(0.65)"></path><text x="13" y="86" class="tf">Liczebnosc_zespolu<tspan x="189.08" class="ty">tinyint?</tspan></text><text x="13" y="111" class="tf">Typ_punktu<tspan x="189.08" class="ty">nvarchar(30)</tspan></text><text x="13" y="136" class="tf">Miasto<tspan x="189.08" class="ty">nvarchar(50)</tspan></text><text x="13" y="161" class="tf">Ulica<tspan x="189.08" class="ty">nvarchar(50)</tspan></text><text x="13" y="186" class="tf">Numer_budynku<tspan x="189.08" class="ty">nvarchar(10)</tspan></text></svg><svg width="213.41" height="225" x="41.42714285714274" y="220.0042857142854" id="h2529991821" class="t"><rect height="40" width="213.41" class="th"></rect><text x="13" y="25" class="tht">Zamowienia_uslug</text><rect height="185" width="213.41" class="t-bg"></rect><text x="13" y="61" class="tf pk">IDZamowienia<tspan x="200.41" class="ty">INT</tspan></text><path d="M7,14A2,2 0 0,1 5,12A2,2 0 0,1 7,10A2,2 0 0,1 9,12A2,2 0 0,1 7,14M12.65,10C11.83,7.67 9.61,6 7, 6A6, 6 0 0, 0 1, 12A6, 6 0 0, 0 7, 18C9.61, 18 11.83, 16.33 12.65, 14H17V18H21V14H23V10H12.65Z" class="i pk" transform="translate(161.079921875, 48) scale(0.65)"></path><text x="13" y="86" class="tf">Kwota_zamowienia<tspan x="200.41" class="ty">smallmoney</tspan></text><text x="13" y="111" class="tf">Data_rozpoczecia<tspan x="200.41" class="ty">datetime</tspan></text><text x="13" y="136" class="tf">Data_zakonczenia<tspan x="200.41" class="ty">datetime?</tspan></text><text x="13" y="161" class="tf">Uwagi<tspan x="200.41" class="ty">nvarchar(255)?</tspan></text><text x="13" y="186" class="tf fk">IDKlienta<tspan x="200.41" class="ty">INT</tspan></text><text x="13" y="211" class="tf fk">IDPracownika<tspan x="200.41" class="ty">nvarchar(11)</tspan></text></svg></g></g></svg>